<svg width="3605" height="883" viewBox="0 0 3605 883" fill="none" xmlns="http://www.w3.org/2000/svg">
<g clip-path="url(#clip0_2126_8834)">
<path d="M0 263.875C349.376 377.323 631.464 298.61 818.574 -0.262695C784.284 208.274 615.031 409.151 413.169 542.673C558.354 520.882 724.631 458.413 831.644 217.387C800.588 537.655 641.946 759.531 410.323 882.487L0 263.875Z" fill="black"/>
</g>
<path d="M1358.07 537.008C1358.07 551.554 1354.47 565.253 1347.27 578.104C1340.07 590.955 1329.26 602.183 1314.86 611.786C1300.45 621.389 1282.45 629.015 1260.84 634.664C1239.37 640.172 1214.24 642.926 1185.43 642.926C1156.62 642.926 1131.34 640.172 1109.59 634.664C1087.98 629.015 1069.98 621.389 1055.57 611.786C1041.17 602.183 1030.36 590.955 1023.16 578.104C1015.96 565.253 1012.36 551.554 1012.36 537.008V344.025H1090.74V508.834C1090.74 518.578 1091.94 527.828 1094.34 536.584C1096.88 545.199 1101.54 552.754 1108.32 559.251C1115.24 565.747 1124.84 570.902 1137.13 574.715C1149.56 578.528 1165.66 580.434 1185.43 580.434C1205.06 580.434 1221.02 578.528 1233.3 574.715C1245.59 570.902 1255.12 565.747 1261.9 559.251C1268.82 552.754 1273.48 545.199 1275.88 536.584C1278.28 527.828 1279.48 518.578 1279.48 508.834V344.025H1358.07V537.008ZM1722.01 635.088L1525.64 435.115V635.088H1447.04V344.025H1532.41L1729 544.846V344.025H1807.17V635.088H1722.01ZM2061.37 407.364V635.088H1982.78V407.364H1859.28V344.025H2185.08V407.364H2061.37ZM2315.78 635.088H2237.19V344.025H2434.2C2455.38 344.025 2473.32 346.214 2488.01 350.592C2502.84 354.97 2514.84 361.184 2524.02 369.233C2533.34 377.283 2540.05 387.028 2544.14 398.467C2548.38 409.765 2550.5 422.404 2550.5 436.386C2550.5 448.672 2548.73 459.405 2545.2 468.585C2541.81 477.764 2537.15 485.673 2531.22 492.31C2525.43 498.807 2518.65 504.314 2510.89 508.834C2503.12 513.353 2494.93 517.095 2486.31 520.061L2581.64 635.088H2489.7L2401.58 527.899H2315.78V635.088ZM2471.06 435.962C2471.06 430.313 2470.28 425.511 2468.73 421.557C2467.32 417.603 2464.78 414.425 2461.1 412.024C2457.43 409.482 2452.49 407.646 2446.28 406.517C2440.2 405.387 2432.58 404.822 2423.4 404.822H2315.78V467.102H2423.4C2432.58 467.102 2440.2 466.537 2446.28 465.407C2452.49 464.277 2457.43 462.512 2461.1 460.111C2464.78 457.569 2467.32 454.321 2468.73 450.367C2470.28 446.412 2471.06 441.611 2471.06 435.962ZM3012.51 489.768C3012.51 514.765 3007.92 536.867 2998.74 556.073C2989.57 575.138 2976.43 591.097 2959.34 603.948C2942.26 616.799 2921.5 626.544 2897.06 633.181C2872.77 639.678 2845.45 642.926 2815.08 642.926C2784.72 642.926 2757.25 639.678 2732.68 633.181C2708.25 626.544 2687.42 616.799 2670.19 603.948C2652.96 591.097 2639.68 575.138 2630.36 556.073C2621.04 536.867 2616.38 514.765 2616.38 489.768C2616.38 464.772 2621.04 442.741 2630.36 423.675C2639.68 404.469 2652.96 388.44 2670.19 375.589C2687.42 362.737 2708.25 353.063 2732.68 346.567C2757.25 339.929 2784.72 336.611 2815.08 336.611C2845.45 336.611 2872.77 339.929 2897.06 346.567C2921.5 353.063 2942.26 362.737 2959.34 375.589C2976.43 388.44 2989.57 404.469 2998.74 423.675C3007.92 442.741 3012.51 464.772 3012.51 489.768ZM2933.08 489.768C2933.08 478.894 2931.31 468.09 2927.78 457.357C2924.39 446.483 2918.25 436.739 2909.35 428.124C2900.59 419.509 2888.59 412.519 2873.34 407.152C2858.09 401.786 2838.67 399.102 2815.08 399.102C2799.27 399.102 2785.35 400.373 2773.35 402.915C2761.35 405.316 2750.97 408.706 2742.21 413.084C2733.46 417.461 2726.11 422.616 2720.18 428.548C2714.25 434.338 2709.52 440.622 2705.99 447.401C2702.46 454.039 2699.91 461.029 2698.36 468.373C2696.95 475.575 2696.24 482.707 2696.24 489.768C2696.24 496.971 2696.95 504.244 2698.36 511.587C2699.91 518.931 2702.46 525.992 2705.99 532.771C2709.52 539.409 2714.25 545.622 2720.18 551.413C2726.11 557.203 2733.46 562.287 2742.21 566.665C2750.97 570.902 2761.35 574.291 2773.35 576.833C2785.35 579.234 2799.27 580.434 2815.08 580.434C2838.67 580.434 2858.09 577.751 2873.34 572.384C2888.59 567.018 2900.59 560.027 2909.35 551.413C2918.25 542.798 2924.39 533.124 2927.78 522.391C2931.31 511.517 2933.08 500.643 2933.08 489.768ZM3359.08 635.088L3162.71 435.115V635.088H3084.11V344.025H3169.48L3366.07 544.846V344.025H3444.24V635.088H3359.08Z" fill="black"/>
<defs>
<clipPath id="clip0_2126_8834">
<rect width="831.643" height="882.75" fill="white"/>
</clipPath>
</defs>
</svg>
